<?xml version="1.0" standalone="no"?>
<!DOCTYPE svg PUBLIC "-//W3C//DTD SVG 20010904//EN"
 "http://www.w3.org/TR/2001/REC-SVG-20010904/DTD/svg10.dtd">
<svg version="1.0" xmlns="http://www.w3.org/2000/svg"
 width="360.000000pt" height="240.000000pt" viewBox="0 0 360.000000 240.000000"
 preserveAspectRatio="xMidYMid meet">

<g transform="translate(0.000000,240.000000) scale(0.100000,-0.100000)"
fill="#000000" stroke="none">
<path d="M1016 1920 c-45 -54 -31 -147 24 -170 40 -17 94 -9 98 13 3 16 -1 17
-31 12 -46 -9 -77 20 -77 70 0 50 31 79 77 70 30 -5 34 -4 31 12 -2 14 -14 19
-49 21 -41 3 -49 0 -73 -28z"/>
<path d="M1210 1932 c-18 -14 -24 -32 -28 -75 -4 -52 -2 -58 26 -87 35 -34 92
-41 129 -15 49 34 49 146 0 180 -30 21 -99 19 -127 -3z m102 -29 c27 -24 25
-97 -4 -117 -30 -21 -44 -20 -68 4 -38 38 -16 130 32 130 12 0 30 -7 40 -17z"/>
<path d="M1427 1943 c-4 -3 -7 -51 -7 -105 l0 -98 65 0 c58 0 65 2 65 20 0 17
-7 20 -40 20 l-40 0 0 85 c0 76 -2 85 -18 85 -10 0 -22 -3 -25 -7z"/>
<path d="M1590 1845 l0 -105 60 0 c53 0 60 2 60 20 0 17 -7 20 -40 20 -36 0
-40 3 -40 24 0 21 5 25 38 28 52 4 51 32 -1 36 -33 3 -38 6 -35 25 2 17 11 23
41 25 24 2 37 8 37 18 0 11 -14 14 -60 14 l-60 0 0 -105z"/>
<path d="M1776 1920 c-45 -54 -31 -147 24 -170 40 -17 94 -9 98 13 3 16 -1 17
-31 12 -46 -9 -77 20 -77 70 0 50 31 79 77 70 30 -5 34 -4 31 12 -2 14 -14 19
-49 21 -41 3 -49 0 -73 -28z"/>
<path d="M1930 1935 c0 -9 9 -15 25 -15 25 0 25 -1 25 -90 0 -89 0 -90 25 -90
25 0 25 1 25 90 0 89 0 90 25 90 16 0 25 6 25 15 0 12 -15 15 -75 15 -60 0
-75 -3 -75 -15z"/>
<path d="M2120 1845 c0 -98 1 -105 20 -105 19 0 20 7 20 105 0 98 -1 105 -20
105 -19 0 -20 -7 -20 -105z"/>
<path d="M2226 1846 c32 -94 38 -106 59 -106 21 0 27 12 59 106 34 103 35 105
13 102 -17 -2 -26 -18 -45 -81 -14 -43 -26 -76 -28 -75 -2 2 -14 37 -26 78
-19 60 -28 76 -45 78 -21 3 -21 1 13 -102z"/>
<path d="M2429 1924 c-19 -21 -24 -36 -24 -81 0 -48 4 -58 28 -79 60 -51 151
-19 164 58 12 81 -23 128 -97 128 -37 0 -51 -5 -71 -26z m101 -14 c43 -23 31
-124 -17 -136 -28 -8 -60 18 -63 51 -8 77 27 113 80 85z"/>
<path d="M130 1590 c0 -14 3346 -14 3355 0 4 7 -557 10 -1674 10 -1114 0
-1681 -3 -1681 -10z"/>
<path d="M1270 1150 l0 -210 40 0 40 0 0 210 0 210 -40 0 -40 0 0 -210z"/>
<path d="M1460 1150 l0 -210 41 0 40 0 -3 165 c-2 90 0 161 3 157 4 -4 16 -41
28 -82 13 -41 34 -112 48 -158 l26 -83 41 3 40 3 51 157 c27 86 52 159 55 162
3 2 3 -70 1 -160 l-3 -164 41 0 41 0 0 210 0 210 -60 0 -59 0 -52 -161 c-28
-88 -53 -159 -55 -156 -3 2 -26 74 -52 158 l-48 154 -62 3 -62 3 0 -211z"/>
<path d="M2116 1351 c-3 -5 -35 -91 -70 -192 -35 -101 -67 -192 -71 -202 -7
-16 -3 -18 41 -15 48 3 48 3 63 51 l15 48 80 -3 80 -3 14 -47 13 -48 45 0 c24
0 44 3 44 8 0 4 -32 98 -71 210 l-72 202 -53 0 c-29 0 -55 -4 -58 -9z m107
-233 c-8 -14 -103 -9 -103 5 0 12 34 127 47 157 3 9 17 -19 33 -70 16 -47 26
-88 23 -92z"/>
<path d="M115 790 c-4 -7 557 -10 1674 -10 1114 0 1681 3 1681 10 0 14 -3346
14 -3355 0z"/>
<path d="M847 603 c-12 -11 -8 -23 8 -23 8 0 15 7 15 15 0 16 -12 20 -23 8z"/>
<path d="M1940 520 c0 -83 1 -90 20 -90 19 0 20 7 20 90 0 83 -1 90 -20 90
-19 0 -20 -7 -20 -90z"/>
<path d="M2240 520 c0 -73 3 -90 15 -90 12 0 15 17 15 90 0 73 -3 90 -15 90
-12 0 -15 -17 -15 -90z"/>
<path d="M2797 604 c-13 -13 -7 -24 14 -24 11 0 19 5 17 12 -5 14 -22 21 -31
12z"/>
<path d="M210 515 c0 -69 3 -85 15 -85 12 0 15 16 15 85 0 69 -3 85 -15 85
-12 0 -15 -16 -15 -85z"/>
<path d="M1130 516 c0 -102 18 -116 22 -18 l3 67 20 -65 c27 -87 45 -89 72 -8
l21 63 1 -62 c1 -49 4 -63 16 -63 12 0 15 16 15 86 0 82 -1 85 -22 82 -17 -2
-26 -17 -43 -68 l-22 -65 -20 65 c-16 51 -25 66 -42 68 -20 3 -21 -1 -21 -82z"/>
<path d="M2115 588 c-3 -7 -13 -38 -24 -68 -10 -30 -22 -63 -26 -72 -5 -14 -2
-18 14 -18 14 0 21 6 21 20 0 16 7 20 36 20 27 0 37 -5 41 -20 3 -11 14 -20
24 -20 17 0 16 4 -6 68 -12 37 -26 75 -30 85 -8 20 -43 23 -50 5z m39 -50 c9
-35 8 -38 -14 -38 -11 0 -20 3 -20 8 0 19 13 52 20 52 4 0 10 -10 14 -22z"/>
<path d="M2318 566 c-10 -13 -13 -27 -8 -32 5 -5 10 -29 12 -54 3 -43 5 -45
36 -48 23 -2 32 1 32 11 0 8 -8 14 -17 13 -14 -1 -19 8 -21 37 -3 32 0 39 17
44 27 7 27 23 1 23 -11 0 -20 7 -20 15 0 21 -12 18 -32 -9z"/>
<path d="M291 546 c-7 -8 -10 -34 -7 -65 3 -30 1 -51 -5 -51 -6 0 -9 -10 -7
-22 2 -19 10 -24 46 -26 49 -4 74 11 70 42 -2 15 -12 22 -36 26 -38 6 -47 24
-15 28 26 4 38 18 47 55 6 26 5 27 -38 27 -25 0 -48 -6 -55 -14z m54 -31 c0
-28 -29 -25 -33 3 -3 19 0 23 15 20 10 -2 18 -12 18 -23z m20 -94 c7 -13 -33
-34 -51 -27 -8 3 -14 12 -14 21 0 17 55 22 65 6z"/>
<path d="M420 495 c0 -51 3 -65 15 -65 11 0 15 12 15 45 0 33 5 47 19 54 26
14 31 5 31 -51 0 -41 3 -48 20 -48 17 0 20 7 20 46 0 25 -5 54 -10 65 -12 21
-49 26 -67 8 -8 -8 -13 -8 -17 0 -17 26 -26 6 -26 -54z"/>
<path d="M585 550 c-7 -11 -3 -12 34 -14 32 -1 40 -26 9 -26 -36 0 -60 -22
-56 -51 3 -27 40 -38 63 -19 9 7 15 8 20 0 3 -5 10 -10 16 -10 13 0 11 104 -3
118 -15 15 -74 16 -83 2z m65 -69 c0 -5 -7 -14 -15 -21 -18 -15 -42 1 -31 19
8 13 46 15 46 2z"/>
<path d="M726 538 c-34 -48 -6 -111 47 -106 17 2 33 9 35 17 3 10 -1 12 -17 8
-22 -5 -51 15 -51 36 0 22 18 40 39 41 34 2 29 21 -6 24 -23 2 -35 -3 -47 -20z"/>
<path d="M840 495 c0 -51 3 -65 15 -65 12 0 15 14 15 65 0 51 -3 65 -15 65
-12 0 -15 -14 -15 -65z"/>
<path d="M926 544 c-21 -20 -21 -78 0 -98 35 -36 104 -3 104 49 0 52 -69 85
-104 49z m58 -20 c20 -20 20 -38 0 -59 -12 -12 -19 -13 -30 -4 -17 14 -18 51
-2 67 15 15 13 15 32 -4z"/>
<path d="M1355 550 c-7 -11 -3 -12 34 -14 30 -1 41 -26 11 -26 -32 0 -60 -18
-60 -39 0 -28 20 -39 68 -38 l42 2 0 50 c0 28 -5 56 -12 63 -15 15 -74 16 -83
2z m65 -75 c0 -9 -7 -18 -16 -22 -18 -7 -39 11 -30 26 11 17 46 13 46 -4z"/>
<path d="M1490 495 c0 -51 3 -65 15 -65 11 0 15 12 15 45 0 34 5 47 20 55 17
9 22 7 30 -14 5 -14 8 -38 7 -53 -1 -19 3 -29 16 -31 14 -3 17 4 17 43 0 25
-5 55 -10 66 -12 21 -49 26 -67 8 -8 -8 -13 -8 -17 0 -17 26 -26 6 -26 -54z"/>
<path d="M1650 500 c0 -40 4 -61 13 -62 6 0 31 -2 55 -3 l42 -1 0 63 c0 49 -3
63 -15 63 -11 0 -15 -12 -15 -44 0 -44 -19 -74 -40 -61 -5 3 -10 28 -10 56 0
37 -4 49 -15 49 -12 0 -15 -13 -15 -60z"/>
<path d="M1816 544 c-9 -8 -16 -31 -16 -49 0 -18 7 -41 16 -49 21 -21 84 -22
84 0 0 8 -5 12 -11 9 -16 -11 -59 4 -59 20 0 11 11 15 40 15 33 0 40 3 40 19
0 27 -26 51 -55 51 -13 0 -31 -7 -39 -16z m62 -21 c2 -8 -6 -13 -22 -13 -25 0
-33 10 -19 24 10 10 36 3 41 -11z"/>
<path d="M2425 550 c-7 -11 -3 -12 34 -14 30 -1 41 -26 11 -26 -32 0 -60 -18
-60 -39 0 -28 20 -39 68 -38 l42 2 0 50 c0 28 -5 56 -12 63 -15 15 -74 16 -83
2z m65 -75 c0 -9 -7 -18 -16 -22 -18 -7 -39 11 -30 26 11 17 46 13 46 -4z"/>
<path d="M2560 495 c0 -51 3 -65 15 -65 11 0 15 11 15 38 0 42 21 79 38 68 7
-4 12 -29 12 -57 0 -37 4 -49 15 -49 11 0 15 11 15 39 0 40 23 76 41 66 5 -4
9 -28 9 -56 0 -38 4 -49 15 -49 13 0 15 11 13 63 -3 56 -5 62 -26 65 -13 2
-29 -2 -37 -8 -9 -7 -15 -8 -20 0 -8 14 -48 13 -63 -2 -9 -9 -12 -9 -12 0 0 7
-7 12 -15 12 -12 0 -15 -14 -15 -65z"/>
<path d="M2790 495 c0 -58 2 -65 20 -65 18 0 20 7 20 65 0 58 -2 65 -20 65
-18 0 -20 -7 -20 -65z"/>
<path d="M2870 495 c0 -50 3 -65 14 -65 11 0 16 14 18 48 3 40 6 47 26 50 12
2 22 10 22 18 0 17 -21 18 -39 2 -11 -10 -14 -10 -18 0 -12 32 -23 6 -23 -53z"/>
<path d="M2985 550 c-7 -11 -3 -12 34 -14 32 -1 40 -26 9 -26 -36 0 -60 -22
-56 -51 3 -27 40 -38 63 -19 9 7 15 8 20 0 3 -5 10 -10 16 -10 13 0 11 104 -3
118 -15 15 -74 16 -83 2z m65 -69 c0 -5 -7 -14 -15 -21 -18 -15 -42 1 -31 19
8 13 46 15 46 2z"/>
<path d="M3120 493 c0 -49 3 -63 15 -63 11 0 15 12 15 44 0 44 19 74 40 61 5
-3 10 -28 10 -56 0 -42 3 -49 20 -49 17 0 20 6 19 38 -2 78 -9 87 -67 87 l-52
1 0 -63z"/>
<path d="M3286 544 c-9 -8 -16 -31 -16 -49 0 -18 7 -41 16 -49 35 -36 104 -3
104 49 0 52 -69 85 -104 49z m58 -20 c20 -20 20 -38 0 -59 -12 -12 -19 -13
-30 -4 -17 14 -18 51 -2 67 15 15 13 15 32 -4z"/>
</g>
</svg>
